<svg width="20" height="33" viewBox="0 0 20 33" fill="none" xmlns="http://www.w3.org/2000/svg">
<g clip-path="url(#clip0_538_465)">
<path d="M0.193731 32.9663L19.9015 13.1847C19.9415 13.1448 19.9638 13.0912 19.9638 13.0353L20.0001 0.221863C20.0001 0.193152 19.9943 0.164723 19.9828 0.138294C19.9713 0.111865 19.9544 0.087985 19.9332 0.0680967C19.9128 0.0480617 19.8885 0.0321634 19.8618 0.0213153C19.8351 0.0104671 19.8064 0.00488281 19.7775 0.00488281C19.7485 0.00488281 19.7199 0.0104671 19.6932 0.0213153C19.6664 0.0321634 19.6422 0.0480617 19.6218 0.0680967L0.092926 19.6705C0.0529709 19.7104 0.030611 19.764 0.030632 19.8199L4.95911e-05 32.8911C0.000579834 32.9128 0.0076313 32.9338 0.0203209 32.9516C0.0330124 32.9695 0.050787 32.9832 0.0714302 32.9912C0.0920715 32.9993 0.11467 33.0012 0.136415 32.9967C0.158161 32.9923 0.178095 32.9817 0.193731 32.9663Z" fill="url(#paint0_linear_538_465)"/>
<path d="M0.0301428 18.0297C0.0295238 18.0521 0.0359106 18.0742 0.0484524 18.093C0.0609941 18.1118 0.0790987 18.1264 0.100363 18.135C0.121626 18.1435 0.145041 18.1455 0.167499 18.1407C0.189955 18.1359 0.21039 18.1246 0.226089 18.1082L9.95312 8.3457H0.0584593L0.0301428 18.0297Z" fill="url(#paint1_linear_538_465)"/>
<path d="M0.0604115 8.34649H9.95508L3.22045 1.94473C3.20497 1.92945 3.18653 1.91731 3.16622 1.90903C3.1459 1.90075 3.12411 1.89648 3.10209 1.89648C3.08008 1.89648 3.05828 1.90075 3.03796 1.90903C3.01765 1.91731 2.99922 1.92945 2.98373 1.94473L0.0694704 4.8685L0.0604115 8.34649Z" fill="url(#paint2_linear_538_465)"/>
</g>
<defs>
<linearGradient id="paint0_linear_538_465" x1="23.0536" y1="2.9443" x2="-3.10794" y2="31.2704" gradientUnits="userSpaceOnUse">
<stop stop-color="#FF5F6D"/>
<stop offset="1" stop-color="#FFC371"/>
</linearGradient>
<linearGradient id="paint1_linear_538_465" x1="-1.71637" y1="15.513" x2="5.22019" y2="7.76676" gradientUnits="userSpaceOnUse">
<stop stop-color="#FFC371"/>
<stop offset="1" stop-color="#FF5F6D"/>
</linearGradient>
<linearGradient id="paint2_linear_538_465" x1="-0.401702" y1="3.28327" x2="6.23012" y2="9.62538" gradientUnits="userSpaceOnUse">
<stop offset="0.01" stop-color="#FFC371"/>
<stop offset="0.77" stop-color="#FF5F6D"/>
</linearGradient>
<clipPath id="clip0_538_465">
<rect width="20" height="33" fill="white" transform="matrix(-1 0 0 1 20 0)"/>
</clipPath>
</defs>
</svg>
